<svg width="12" height="12" viewBox="0 0 12 12" fill="none" xmlns="http://www.w3.org/2000/svg">
<path fill-rule="evenodd" clip-rule="evenodd" d="M12 3.64495V4.93066C12 4.99316 11.9574 5.0445 11.8722 5.08468C11.7869 5.12486 11.678 5.14495 11.5455 5.14495H2.45455C2.32197 5.14495 2.21307 5.12486 2.12784 5.08468C2.04261 5.0445 2 4.99316 2 4.93066V3.64495C2 3.58245 2.04261 3.53111 2.12784 3.49093C2.21307 3.45075 2.32197 3.43066 2.45455 3.43066H11.5455C11.678 3.43066 11.7869 3.45075 11.8722 3.49093C11.9574 3.53111 12 3.58245 12 3.64495Z" fill="#F54751"/>
<path fill-rule="evenodd" clip-rule="evenodd" d="M12 7.06927V8.35498C12 8.41748 11.9574 8.46882 11.8722 8.509C11.7869 8.54918 11.678 8.56927 11.5455 8.56927H2.45455C2.32197 8.56927 2.21307 8.54918 2.12784 8.509C2.04261 8.46882 2 8.41748 2 8.35498V7.06927C2 7.00677 2.04261 6.95543 2.12784 6.91525C2.21307 6.87507 2.32197 6.85498 2.45455 6.85498H11.5455C11.678 6.85498 11.7869 6.87507 11.8722 6.91525C11.9574 6.95543 12 7.00677 12 7.06927Z" fill="#04A981"/>
<path fill-rule="evenodd" clip-rule="evenodd" d="M12 0.220633V1.50635C12 1.56885 11.9598 1.62019 11.8795 1.66037C11.7991 1.70054 11.6964 1.72063 11.5714 1.72063H0.428571C0.303571 1.72063 0.200893 1.70054 0.120536 1.66037C0.0401782 1.62019 0 1.56885 0 1.50635V0.220633C0 0.158133 0.0401782 0.106794 0.120536 0.0666155C0.200893 0.0264367 0.303571 0.00634766 0.428571 0.00634766H11.5714C11.6964 0.00634766 11.7991 0.0264367 11.8795 0.0666155C11.9598 0.106794 12 0.158133 12 0.220633Z" fill="#F54751"/>
<path fill-rule="evenodd" clip-rule="evenodd" d="M12 10.4936V11.7793C12 11.8418 11.9598 11.8931 11.8795 11.9333C11.7991 11.9735 11.6964 11.9936 11.5714 11.9936H0.428571C0.303571 11.9936 0.200893 11.9735 0.120536 11.9333C0.0401782 11.8931 0 11.8418 0 11.7793V10.4936C0 10.4311 0.0401782 10.3797 0.120536 10.3396C0.200893 10.2994 0.303571 10.2793 0.428571 10.2793H11.5714C11.6964 10.2793 11.7991 10.2994 11.8795 10.3396C11.9598 10.3797 12 10.4311 12 10.4936Z" fill="#04A981"/>
</svg>
