<svg width="12" height="12" viewBox="0 0 12 12" fill="none" xmlns="http://www.w3.org/2000/svg">
<path fill-rule="evenodd" clip-rule="evenodd" d="M12 1.51277V0.227051C12 0.16455 11.9438 0.113212 11.8313 0.073033C11.7187 0.0328542 11.575 0.012765 11.4 0.012765H6.6C6.425 0.012765 6.28125 0.0328542 6.16875 0.073033C6.05625 0.113212 6 0.16455 6 0.227051V1.51277C6 1.57527 6.05625 1.6266 6.16875 1.66678C6.28125 1.70696 6.425 1.72705 6.6 1.72705H11.4C11.575 1.72705 11.7187 1.70696 11.8313 1.66678C11.9438 1.6266 12 1.57527 12 1.51277Z" fill="#04A981"/>
<path fill-rule="evenodd" clip-rule="evenodd" d="M12 4.93708V3.65137C12 3.58887 11.9531 3.53753 11.8594 3.49735C11.7656 3.45717 11.6458 3.43708 11.5 3.43708H4.5C4.35417 3.43708 4.23438 3.45717 4.14062 3.49735C4.04687 3.53753 4 3.58887 4 3.65137V4.93708C4 4.99958 4.04687 5.05092 4.14062 5.0911C4.23438 5.13128 4.35417 5.15137 4.5 5.15137H11.5C11.6458 5.15137 11.7656 5.13128 11.8594 5.0911C11.9531 5.05092 12 4.99958 12 4.93708Z" fill="#04A981"/>
<path fill-rule="evenodd" clip-rule="evenodd" d="M12 8.3614V7.07568C12 7.01318 11.9574 6.96184 11.8722 6.92167C11.7869 6.88149 11.678 6.8614 11.5455 6.8614H2.45455C2.32197 6.8614 2.21307 6.88149 2.12784 6.92167C2.04261 6.96184 2 7.01318 2 7.07568V8.3614C2 8.4239 2.04261 8.47524 2.12784 8.51542C2.21307 8.55559 2.32197 8.57568 2.45455 8.57568H11.5455C11.678 8.57568 11.7869 8.55559 11.8722 8.51542C11.9574 8.47524 12 8.4239 12 8.3614Z" fill="#04A981"/>
<path fill-rule="evenodd" clip-rule="evenodd" d="M12 11.7857V10.5C12 10.4375 11.9598 10.3862 11.8795 10.346C11.7991 10.3058 11.6964 10.2857 11.5714 10.2857H0.428571C0.303571 10.2857 0.200893 10.3058 0.120536 10.346C0.0401782 10.3862 0 10.4375 0 10.5V11.7857C0 11.8482 0.0401782 11.8996 0.120536 11.9397C0.200893 11.9799 0.303571 12 0.428571 12H11.5714C11.6964 12 11.7991 11.9799 11.8795 11.9397C11.9598 11.8996 12 11.8482 12 11.7857Z" fill="#04A981"/>
</svg>
