<svg width="12" height="12" viewBox="0 0 12 12" fill="none" xmlns="http://www.w3.org/2000/svg">
<path fill-rule="evenodd" clip-rule="evenodd" d="M12 10.4872V11.7729C12 11.8354 11.9438 11.8868 11.8313 11.927C11.7187 11.9671 11.575 11.9872 11.4 11.9872H6.6C6.425 11.9872 6.28125 11.9671 6.16875 11.927C6.05625 11.8868 6 11.8354 6 11.7729V10.4872C6 10.4247 6.05625 10.3734 6.16875 10.3332C6.28125 10.293 6.425 10.2729 6.6 10.2729H11.4C11.575 10.2729 11.7187 10.293 11.8313 10.3332C11.9438 10.3734 12 10.4247 12 10.4872Z" fill="#F54751"/>
<path fill-rule="evenodd" clip-rule="evenodd" d="M12 7.06292V8.34863C12 8.41113 11.9531 8.46247 11.8594 8.50265C11.7656 8.54283 11.6458 8.56292 11.5 8.56292H4.5C4.35417 8.56292 4.23438 8.54283 4.14062 8.50265C4.04687 8.46247 4 8.41113 4 8.34863V7.06292C4 7.00042 4.04687 6.94908 4.14062 6.9089C4.23438 6.86872 4.35417 6.84863 4.5 6.84863H11.5C11.6458 6.84863 11.7656 6.86872 11.8594 6.9089C11.9531 6.94908 12 7.00042 12 7.06292Z" fill="#F54751"/>
<path fill-rule="evenodd" clip-rule="evenodd" d="M12 3.6386V4.92432C12 4.98682 11.9574 5.03816 11.8722 5.07833C11.7869 5.11851 11.678 5.1386 11.5455 5.1386H2.45455C2.32197 5.1386 2.21307 5.11851 2.12784 5.07833C2.04261 5.03816 2 4.98682 2 4.92432V3.6386C2 3.5761 2.04261 3.52476 2.12784 3.48458C2.21307 3.44441 2.32197 3.42432 2.45455 3.42432H11.5455C11.678 3.42432 11.7869 3.44441 11.8722 3.48458C11.9574 3.52476 12 3.5761 12 3.6386Z" fill="#F54751"/>
<path fill-rule="evenodd" clip-rule="evenodd" d="M12 0.214286V1.5C12 1.5625 11.9598 1.61384 11.8795 1.65402C11.7991 1.6942 11.6964 1.71429 11.5714 1.71429H0.428571C0.303571 1.71429 0.200893 1.6942 0.120536 1.65402C0.0401782 1.61384 0 1.5625 0 1.5V0.214286C0 0.151785 0.0401782 0.100447 0.120536 0.0602679C0.200893 0.0200891 0.303571 0 0.428571 0H11.5714C11.6964 0 11.7991 0.0200891 11.8795 0.0602679C11.9598 0.100447 12 0.151785 12 0.214286Z" fill="#F54751"/>
</svg>
