<svg width="93" height="58" viewBox="0 0 93 58" fill="none" xmlns="http://www.w3.org/2000/svg">
<path d="M80.0981 3.93713V4.78631H17.5078V3.93713C17.5078 1.77557 19.2671 0 21.4564 0H76.1105C78.2998 0 80.0981 1.77557 80.0981 3.93713Z" fill="#224AC9"/>
<path d="M80.0981 4.41797V41.4116C80.0981 43.5386 78.3388 45.2857 76.1496 45.2857H21.4564C19.2671 45.2857 17.5078 43.5386 17.5078 41.4116V4.41797H80.0981Z" fill="url(#paint0_linear_2730_20602)"/>
<path d="M75.3888 1.42383C75.8224 1.42383 76.1838 1.77329 76.1838 2.19264C76.1838 2.612 75.8224 2.96146 75.3888 2.96146C74.9551 2.96146 74.5938 2.612 74.5938 2.19264C74.5938 1.74999 74.9551 1.42383 75.3888 1.42383Z" fill="#CCB69C"/>
<path d="M71.545 1.42383C71.9787 1.42383 72.34 1.77329 72.34 2.19264C72.34 2.612 71.9787 2.96146 71.545 2.96146C71.1114 2.96146 70.75 2.612 70.75 2.19264C70.75 1.74999 71.1114 1.42383 71.545 1.42383Z" fill="#CCB69C"/>
<path d="M67.67 1.42383C68.1037 1.42383 68.465 1.77329 68.465 2.19264C68.465 2.612 68.1037 2.96146 67.67 2.96146C67.2364 2.96146 66.875 2.612 66.875 2.19264C66.875 1.74999 67.2364 1.42383 67.67 1.42383Z" fill="#CCB69C"/>
<rect x="60" y="8" width="23" height="38" transform="rotate(90 60 8)" fill="#224AC9"/>
<path d="M26.4989 25.5395C27.0904 23.323 29.4746 19.7521 33.5648 19.5913C38.8908 19.3821 41.8494 24.9987 46.8074 24.0167C51.7654 23.0347 54.4706 19.3497 56.3176 16.5347" stroke="#366DFD" stroke-width="2" stroke-linecap="round"/>
<rect x="77" y="8" width="23" height="13" transform="rotate(90 77 8)" fill="#224AC9"/>
<ellipse cx="12.8136" cy="44.8136" rx="12.8136" ry="12.8136" fill="#CCB69C"/>
<path d="M85.1449 25.5716C85.828 24.7036 87.0855 24.5538 87.9534 25.237L90.512 27.2507C91.3799 27.9339 91.5298 29.1913 90.8466 30.0593L75.5665 49.4731C75.3031 49.8077 74.9398 50.0495 74.5294 50.1634L70.5669 51.2624C69.9164 51.4428 69.2777 50.9401 69.3002 50.2654L69.4374 46.1556C69.4517 45.73 69.6014 45.32 69.8647 44.9854L85.1449 25.5716Z" fill="#224AC9"/>
<rect x="84.5039" y="26.3906" width="7.25598" height="5.38069" transform="rotate(38.2055 84.5039 26.3906)" fill="#91AFFE"/>
<defs>
<linearGradient id="paint0_linear_2730_20602" x1="42.2411" y1="35.8965" x2="85.5594" y2="-48.9161" gradientUnits="userSpaceOnUse">
<stop stop-color="#356CFC"/>
<stop offset="0.698575" stop-color="#C7D6FF"/>
</linearGradient>
</defs>
</svg>
