<svg width="70" height="71" viewBox="0 0 70 71" fill="none" xmlns="http://www.w3.org/2000/svg">
<circle cx="53.375" cy="17.125" r="13.125" fill="#CCB69C"/>
<path d="M23.6345 17.5691C27.2832 16.0424 31.199 15.2567 35.1542 15.2577C49.5819 15.2577 61.2507 25.2863 61.2507 37.6262C61.205 40.6184 60.5154 43.5655 59.2288 46.2674C57.9422 48.9692 56.0888 51.3624 53.7946 53.2839V59.9946C53.7946 60.9834 53.4018 61.9318 52.7026 62.631C52.0035 63.3301 51.0553 63.7227 50.0665 63.7227H46.3384C45.3497 63.7227 44.4015 63.3301 43.7024 62.631C43.0032 61.9318 42.6104 60.9834 42.6104 59.9946V59.0626C37.7172 60.3045 32.5913 60.3045 27.6981 59.0626V59.9946C27.6981 60.9834 27.3052 61.9318 26.6061 62.631C25.9069 63.3301 24.9587 63.7227 23.97 63.7227H20.2419C19.2532 63.7227 18.305 63.3301 17.6058 62.631C16.9067 61.9318 16.5139 60.9834 16.5139 59.9946V54.1786C9.87788 51.7181 1.60156 47.5801 1.60156 45.0823V36.2841C1.60156 34.1963 3.5029 32.9889 8.75946 32.9889C10.0729 29.7297 13.8359 24.3176 16.5139 22.0426V15.6678C16.5139 14.99 17.0573 14.4438 17.7319 14.5092C19.4888 14.6797 22.633 15.3025 23.6345 17.5691Z" fill="url(#paint0_linear_2407_12348)"/>
<rect x="13.1406" y="32.4512" width="3.84833" height="5.7725" rx="1.92417" fill="white"/>
<defs>
<linearGradient id="paint0_linear_2407_12348" x1="25.1726" y1="52.4148" x2="83.8533" y2="-38.4991" gradientUnits="userSpaceOnUse">
<stop stop-color="#356CFC"/>
<stop offset="1" stop-color="#C7D6FF"/>
</linearGradient>
</defs>
</svg>
