<svg width="80" height="43" viewBox="0 0 80 43" fill="none" xmlns="http://www.w3.org/2000/svg">
<ellipse cx="58.4008" cy="21.5" rx="21.599" ry="21.5" fill="#CCB69C"/>
<path d="M52.5203 32.0762V10.2906H59.1507C64.0051 10.2906 67.4683 11.9482 67.4683 16.8914C67.4683 21.657 64.0051 23.8178 59.2691 23.8178H55.9835V32.0762H52.5203ZM55.9835 21.065H58.9435C62.4067 21.065 64.0643 19.733 64.0643 16.8914C64.0643 13.9906 62.2883 13.073 58.7955 13.073H55.9835V21.065Z" fill="white"/>
<path d="M21.599 43C33.5279 43 43.1981 33.3741 43.1981 21.5C43.1981 9.62588 33.5279 0 21.599 0C9.67022 0 0 9.62588 0 21.5C0 33.3741 9.67022 43 21.599 43Z" fill="url(#paint0_linear_2407_4320)"/>
<path d="M21.6972 37.6562C30.6208 37.6562 37.8547 30.4602 37.8547 21.5835C37.8547 12.7069 30.6208 5.51093 21.6972 5.51093C12.7737 5.51093 5.53976 12.7069 5.53976 21.5835C5.53976 30.4602 12.7737 37.6562 21.6972 37.6562Z" fill="#2435A1"/>
<path d="M19.6163 15.4875C20.7492 14.3057 22.6452 14.3057 23.7782 15.4875L25.8103 17.6072L27.9957 19.7971C29.1088 20.9125 29.1088 22.7122 27.9957 23.8275L25.8103 26.0174L23.7782 28.1371C22.6452 29.3189 20.7492 29.3189 19.6163 28.1371L17.5842 26.0174L15.3988 23.8275C14.2857 22.7122 14.2857 20.9125 15.3988 19.7971L17.5842 17.6072L19.6163 15.4875Z" fill="white"/>
<defs>
<linearGradient id="paint0_linear_2407_4320" x1="21.599" y1="0" x2="21.599" y2="43" gradientUnits="userSpaceOnUse">
<stop stop-color="#356CFC"/>
<stop offset="1" stop-color="#C7D6FF" stop-opacity="0.9"/>
</linearGradient>
</defs>
</svg>
