<svg width="36" height="37" viewBox="0 0 36 37" fill="none" xmlns="http://www.w3.org/2000/svg">
<g id="help_outlined">
<g id="Union">
<path d="M13.0915 16.7271C12.805 15.5814 13.0841 14.0338 13.9583 12.7623C14.8081 11.5262 16.168 10.6249 18 10.6249C18.6214 10.6249 19.125 10.1213 19.125 9.49994C19.125 8.87862 18.6214 8.37494 18 8.37494C15.3321 8.37494 13.3169 9.72364 12.1042 11.4876C10.9159 13.2161 10.445 15.4184 10.9086 17.2728C11.0593 17.8756 11.6701 18.242 12.2729 18.0913C12.8757 17.9406 13.2421 17.3298 13.0915 16.7271Z" fill="#AC9174"/>
<path fill-rule="evenodd" clip-rule="evenodd" d="M25.5 24.868V27.4999C25.5 28.3284 24.8284 28.9999 24 28.9999H12C11.1716 28.9999 10.5 28.3284 10.5 27.4999V24.868C7.75661 22.6688 6 19.2895 6 15.4999C6 8.87252 11.3726 3.49994 18 3.49994C24.6274 3.49994 30 8.87252 30 15.4999C30 19.2895 28.2434 22.6688 25.5 24.868ZM23.25 23.788L24.0927 23.1124C26.3263 21.3219 27.75 18.578 27.75 15.4999C27.75 10.1152 23.3848 5.74994 18 5.74994C12.6152 5.74994 8.25 10.1152 8.25 15.4999C8.25 18.578 9.67371 21.3219 11.9073 23.1124L12.75 23.788V26.7499H23.25V23.788Z" fill="#AC9174"/>
<path d="M12 31.9999C12 31.1715 12.6716 30.4999 13.5 30.4999H22.5C23.3284 30.4999 24 31.1715 24 31.9999C24 32.8284 23.3284 33.4999 22.5 33.4999H13.5C12.6716 33.4999 12 32.8284 12 31.9999Z" fill="#AC9174"/>
</g>
</g>
</svg>
