<svg width="36" height="37" viewBox="0 0 36 37" fill="none" xmlns="http://www.w3.org/2000/svg">
<g id="warning_outlined">
<g id="Union">
<path d="M17.9998 11C18.6211 11 19.1248 11.5037 19.1248 12.125V21.125C19.1248 21.7463 18.6211 22.25 17.9998 22.25C17.3785 22.25 16.8748 21.7463 16.8748 21.125V12.125C16.8748 11.5037 17.3785 11 17.9998 11Z" fill="#AC9174"/>
<path d="M17.9998 27.125C18.8282 27.125 19.4998 26.4534 19.4998 25.625C19.4998 24.7966 18.8282 24.125 17.9998 24.125C17.1714 24.125 16.4998 24.7966 16.4998 25.625C16.4998 26.4534 17.1714 27.125 17.9998 27.125Z" fill="#AC9174"/>
<path fill-rule="evenodd" clip-rule="evenodd" d="M13.2034 7.8125C15.3685 4.06249 20.7812 4.06251 22.9462 7.8125L32.2344 23.9C34.3994 27.65 31.6931 32.3375 27.363 32.3375H8.78671C4.45658 32.3375 1.75026 27.65 3.91532 23.9L13.2034 7.8125ZM20.9977 8.9375C19.6986 6.6875 16.451 6.6875 15.152 8.9375L5.86388 25.025C4.56484 27.275 6.18863 30.0875 8.78671 30.0875H27.363C29.961 30.0875 31.5848 27.275 30.2858 25.025L20.9977 8.9375Z" fill="#AC9174"/>
</g>
</g>
</svg>
