<svg width="36" height="37" viewBox="0 0 36 37" fill="none" xmlns="http://www.w3.org/2000/svg">
<g id="customerservice_outlined">
<path id="Union" fill-rule="evenodd" clip-rule="evenodd" d="M17.9998 6.125C12.9433 6.125 8.68117 9.52964 7.38178 14.171C7.75168 14.0598 8.14386 14 8.55 14C10.7868 14 12.6 15.8132 12.6 18.05V23.45C12.6 25.6868 10.7868 27.5 8.55 27.5C6.31325 27.5 4.5 25.6868 4.5 23.45V18.05C4.5 17.5137 4.60424 17.0018 4.79357 16.5333C4.76337 16.4172 4.75138 16.2942 4.76063 16.1678C5.26391 9.29433 10.9985 3.875 17.9998 3.875C24.8637 3.875 30.5097 9.08345 31.2033 15.7644C31.224 15.9637 31.1913 16.1562 31.1168 16.3278C31.3627 16.8504 31.5001 17.4342 31.5001 18.05V23.45C31.5001 24.3073 31.2338 25.1023 30.7794 25.7569C30.7731 25.7917 30.7651 25.8266 30.7554 25.8614C29.4313 30.5971 25.2175 33.074 21.472 33.5574C20.8558 33.6369 20.2918 33.2019 20.2122 32.5857C20.1327 31.9695 20.5678 31.4055 21.184 31.3259C23.5756 31.0173 26.0789 29.7415 27.5657 27.4984C27.5273 27.4995 27.4888 27.5 27.4501 27.5C25.2134 27.5 23.4001 25.6868 23.4001 23.45V18.05C23.4001 15.8132 25.2134 14 27.4501 14C27.8561 14 28.2481 14.0597 28.6178 14.1709C27.3185 9.52957 23.0561 6.125 17.9998 6.125ZM10.35 23.45V18.05C10.35 17.0559 9.54411 16.25 8.55 16.25C7.55589 16.25 6.75 17.0559 6.75 18.05V23.45C6.75 24.4441 7.55589 25.25 8.55 25.25C9.54411 25.25 10.35 24.4441 10.35 23.45ZM29.2501 18.05V23.45C29.2501 24.4441 28.4443 25.25 27.4501 25.25C26.456 25.25 25.6501 24.4441 25.6501 23.45V18.05C25.6501 17.0559 26.456 16.25 27.4501 16.25C28.4443 16.25 29.2501 17.0559 29.2501 18.05Z" fill="#AC9174"/>
</g>
</svg>
