<svg width="70" height="70" viewBox="0 0 70 70" fill="none" xmlns="http://www.w3.org/2000/svg">
<ellipse cx="65.5133" cy="9.47427" rx="2.52895" ry="2.52895" fill="#CDEDE7"/>
<circle cx="45.6206" cy="45.6221" r="21.3075" transform="rotate(-9 45.6206 45.6221)" fill="#CCB69C"/>
<path d="M22.7606 45.5212C35.3309 45.5212 45.5212 35.3309 45.5212 22.7606C45.5212 10.1903 35.3309 0 22.7606 0C10.1903 0 0 10.1903 0 22.7606C0 35.3309 10.1903 45.5212 22.7606 45.5212Z" fill="url(#paint0_linear_2407_12339)"/>
<path d="M22.8641 39.864C32.2675 39.864 39.8905 32.2461 39.8905 22.849C39.8905 13.4519 32.2675 5.83404 22.8641 5.83404C13.4606 5.83404 5.83767 13.4519 5.83767 22.849C5.83767 32.2461 13.4606 39.864 22.8641 39.864Z" fill="#2435A1"/>
<path d="M20.6712 16.3955C21.8651 15.1445 23.863 15.1445 25.0569 16.3955L27.1983 18.6396L29.5013 20.9579C30.6742 22.1386 30.6742 24.0438 29.5013 25.2245L27.1983 27.5428L25.0569 29.7869C23.863 31.038 21.8651 31.038 20.6712 29.7869L18.5299 27.5428L16.2269 25.2245C15.0539 24.0438 15.0539 22.1386 16.2269 20.9579L18.5299 18.6396L20.6712 16.3955Z" fill="white"/>
<defs>
<linearGradient id="paint0_linear_2407_12339" x1="22.7606" y1="0" x2="22.7606" y2="45.5212" gradientUnits="userSpaceOnUse">
<stop stop-color="#356CFC"/>
<stop offset="1" stop-color="#C7D6FF" stop-opacity="0.9"/>
</linearGradient>
</defs>
</svg>
