<svg width="69" height="70" viewBox="0 0 69 70" fill="none" xmlns="http://www.w3.org/2000/svg">
<path d="M29.2733 6.65231C31.1016 6.65231 32.5837 5.16314 32.5837 3.32615C32.5837 1.48917 31.1016 0 29.2733 0C27.445 0 25.9629 1.48917 25.9629 3.32615C25.9629 5.16314 27.445 6.65231 29.2733 6.65231Z" fill="#224AC9"/>
<path d="M30.9927 12.4634H25.0391L27.6138 4.79688H30.9927V12.4634Z" fill="#224AC9"/>
<path d="M47.7167 6.65231C49.545 6.65231 51.0271 5.16314 51.0271 3.32615C51.0271 1.48917 49.545 0 47.7167 0C45.8884 0 44.4062 1.48917 44.4062 3.32615C44.4062 5.16314 45.8884 6.65231 47.7167 6.65231Z" fill="#224AC9"/>
<path d="M45.9971 12.4634H51.9507L49.3759 4.79688H45.9971V12.4634Z" fill="#224AC9"/>
<path d="M18.0166 12.8242H23.4912V30.1426H18.0166C16.0918 30.1449 14.2445 29.3812 12.8787 28.0186C11.5129 26.6559 10.7398 24.8053 10.7285 22.8714V20.1383C10.7285 19.1771 10.9171 18.2253 11.2835 17.3374C11.6498 16.4494 12.1868 15.6427 12.8637 14.9634C13.5405 14.2841 14.344 13.7456 15.2282 13.3785C16.1124 13.0114 17.0599 12.8231 18.0166 12.8242Z" fill="#224AC9"/>
<path d="M60.2478 30.1523H54.7733V12.834H60.2478C62.1785 12.834 64.0301 13.6046 65.3953 14.9763C66.7604 16.3479 67.5273 18.2083 67.5273 20.1481V22.8382C67.5273 24.7781 66.7604 26.6385 65.3953 28.0101C64.0301 29.3818 62.1785 30.1523 60.2478 30.1523Z" fill="#224AC9"/>
<path d="M39.3589 8.61328L26.3568 8.71641C24.5115 8.73119 22.7176 9.3295 21.2298 10.4264C19.7419 11.5233 18.6357 13.0631 18.0679 14.8273L10.7285 37.7236C10.0348 39.8882 9.86071 42.187 10.2204 44.4321C10.5802 46.6773 11.4635 48.805 12.7983 50.6415C14.1331 52.478 15.8814 53.9711 17.9004 54.9988C19.9194 56.0265 22.1517 56.5596 24.415 56.5546H39.3932L39.3589 8.61328Z" fill="url(#paint0_linear_2407_5841)"/>
<path d="M38.9053 8.61328L51.9074 8.71641C53.7534 8.72859 55.5485 9.32588 57.0368 10.4231C58.5251 11.5204 59.6309 13.0617 60.1963 14.8273L67.5357 37.7236C68.2294 39.8882 68.4035 42.187 68.0438 44.4321C67.6841 46.6773 66.8007 48.805 65.4659 50.6415C64.1311 52.478 62.3828 53.9711 60.3638 54.9988C58.3448 56.0265 56.1125 56.5596 53.8492 56.5546H38.9053V8.61328Z" fill="url(#paint1_linear_2407_5841)"/>
<mask id="mask0_2407_5841" style="mask-type:luminance" maskUnits="userSpaceOnUse" x="20" y="16" width="39" height="20">
<path d="M58.5702 16.9473H20V35.2626H58.5702V16.9473Z" fill="white"/>
</mask>
<g mask="url(#mask0_2407_5841)">
<path d="M58.3474 27.2609C58.3474 27.175 56.9788 18.6662 55.0883 17.6262C54.2329 17.1793 46.4145 16.9473 38.656 16.9473C30.8974 16.9473 23.789 17.1621 22.831 17.6005C22.4118 17.781 21.7874 18.056 20.8208 22.5338C20.1108 25.817 19.5034 30.037 20.6069 31.4293C22.2664 33.5436 30.5895 35.254 39.1435 35.254C47.0047 35.254 56.1918 34.1281 57.9625 32.2287C58.4329 31.713 58.8692 30.716 58.356 27.2523L58.3474 27.2609ZM54.9258 30.0026C53.7624 30.8621 48.707 32.0654 39.289 32.0654C29.871 32.0654 24.4306 29.8909 23.618 29.0314C23.2844 28.0344 23.8232 22.4737 24.8497 20.4367C28.2713 19.6976 50.2724 19.9382 53.0781 20.4367C54.0276 21.8892 55.3621 28.3181 54.9515 30.0026H54.9258Z" fill="#224AC9"/>
<path d="M55.7977 30.5269C54.6686 31.3864 48.2873 32.7873 39.1515 32.7873C30.0158 32.7873 23.6174 30.6816 22.8304 29.8393C22.5054 28.8424 23.3522 21.8892 24.3445 19.8437C27.6549 19.1045 50.8621 19.3796 53.5993 19.8437C54.5061 21.2962 56.2169 28.8423 55.7977 30.5269Z" fill="#224AC9"/>
<path d="M45.5334 29.4959C45.3455 29.5077 45.1572 29.4806 44.9801 29.4164C44.803 29.3521 44.6409 29.252 44.5038 29.1223C44.3667 28.9927 44.2576 28.8361 44.1831 28.6624C44.1086 28.4887 44.0703 28.3014 44.0707 28.1122V24.4853C44.0627 24.1502 44.1876 23.8256 44.4178 23.583C44.648 23.3405 44.9647 23.1997 45.2982 23.1918C45.6317 23.1838 45.9546 23.3092 46.1961 23.5405C46.4375 23.7718 46.5776 24.09 46.5856 24.4251L46.7909 28.0434C46.8099 28.4022 46.6894 28.7544 46.4547 29.0255C46.2201 29.2965 45.8897 29.4652 45.5334 29.4959Z" fill="#CCB69C"/>
<path d="M32.7021 29.477C32.8902 29.4912 33.0793 29.4661 33.2574 29.4034C33.4355 29.3407 33.5987 29.2417 33.7369 29.1126C33.8751 28.9834 33.9852 28.827 34.0603 28.653C34.1354 28.4791 34.1739 28.2914 34.1734 28.1018V24.4662C34.1778 24.3003 34.1498 24.1351 34.0907 23.9801C34.0317 23.8251 33.9428 23.6833 33.8292 23.5628C33.7157 23.4423 33.5796 23.3454 33.4287 23.2778C33.2779 23.2101 33.1152 23.173 32.9501 23.1684C32.785 23.1639 32.6206 23.1922 32.4663 23.2515C32.312 23.3108 32.1709 23.4001 32.0509 23.5142C31.931 23.6283 31.8346 23.765 31.7673 23.9166C31.6999 24.0681 31.663 24.2316 31.6585 24.3975L31.4446 27.9987C31.4163 28.3622 31.5328 28.7222 31.7686 28.9995C32.0045 29.2767 32.3402 29.4485 32.7021 29.477Z" fill="#CCB69C"/>
</g>
<path d="M16.5625 69.2296C25.7096 69.2296 33.1249 61.7791 33.1249 52.5884C33.1249 43.3978 25.7096 35.9473 16.5625 35.9473C7.41526 35.9473 0 43.3978 0 52.5884C0 61.7791 7.41526 69.2296 16.5625 69.2296Z" fill="#CCB69C"/>
<defs>
<linearGradient id="paint0_linear_2407_5841" x1="24.7156" y1="8.61328" x2="24.7156" y2="56.5546" gradientUnits="userSpaceOnUse">
<stop stop-color="#C7D6FF"/>
<stop offset="1" stop-color="#356CFC"/>
</linearGradient>
<linearGradient id="paint1_linear_2407_5841" x1="53.5657" y1="8.61328" x2="53.5657" y2="56.5546" gradientUnits="userSpaceOnUse">
<stop stop-color="#C7D6FF"/>
<stop offset="1" stop-color="#356CFC"/>
</linearGradient>
</defs>
</svg>
