<svg width="89" height="69" viewBox="0 0 89 69" fill="none" xmlns="http://www.w3.org/2000/svg">
<ellipse cx="12.8136" cy="12.8136" rx="12.8136" ry="12.8136" fill="#CCB69C"/>
<path d="M73.0981 11.9371V12.7863H10.5078V11.9371C10.5078 9.77557 12.2671 8 14.4564 8H69.1105C71.2998 8 73.0981 9.77557 73.0981 11.9371Z" fill="#224AC9"/>
<path d="M73.0981 12.418V49.4116C73.0981 51.5386 71.3388 53.2857 69.1496 53.2857H14.4564C12.2671 53.2857 10.5078 51.5386 10.5078 49.4116V12.418H73.0981Z" fill="url(#paint0_linear_2407_8434)"/>
<rect x="28" y="19" width="4" height="9" transform="rotate(90 28 19)" fill="#224AC9"/>
<rect x="43" y="35" width="4" height="24" transform="rotate(90 43 35)" fill="#224AC9"/>
<rect x="38" y="27" width="4" height="19" transform="rotate(90 38 27)" fill="#224AC9"/>
<path d="M68.3888 9.42383C68.8224 9.42383 69.1838 9.77329 69.1838 10.1926C69.1838 10.612 68.8224 10.9615 68.3888 10.9615C67.9551 10.9615 67.5938 10.612 67.5938 10.1926C67.5938 9.74999 67.9551 9.42383 68.3888 9.42383Z" fill="#CCB69C"/>
<path d="M64.545 9.42383C64.9787 9.42383 65.34 9.77329 65.34 10.1926C65.34 10.612 64.9787 10.9615 64.545 10.9615C64.1114 10.9615 63.75 10.612 63.75 10.1926C63.75 9.74999 64.1114 9.42383 64.545 9.42383Z" fill="#CCB69C"/>
<path d="M60.67 9.42383C61.1037 9.42383 61.465 9.77329 61.465 10.1926C61.465 10.612 61.1037 10.9615 60.67 10.9615C60.2364 10.9615 59.875 10.612 59.875 10.1926C59.875 9.74999 60.2364 9.42383 60.67 9.42383Z" fill="#CCB69C"/>
<path d="M54.7786 39.2011C55.934 37.4649 57.42 35.9732 59.1518 34.8112C60.8837 33.6493 62.8274 32.8398 64.8721 32.429C66.9168 32.0183 69.0223 32.0142 71.0685 32.4172C73.1148 32.8202 75.0616 33.6222 76.7978 34.7776C78.5341 35.9329 80.0258 37.419 81.1878 39.1508C82.3497 40.8826 83.1592 42.8264 83.57 44.8711C83.9807 46.9157 83.9847 49.0213 83.5818 51.0675C83.1788 53.1138 82.3767 55.0606 81.2214 56.7968L77.255 54.1575C78.0637 52.9421 78.6252 51.5793 78.9072 50.147C79.1893 48.7146 79.1865 47.2407 78.899 45.8094C78.6114 44.3782 78.0448 43.0175 77.2314 41.8053C76.4181 40.593 75.3739 39.5528 74.1585 38.744C72.9431 37.9353 71.5803 37.3738 70.148 37.0917C68.7156 36.8097 67.2417 36.8125 65.8105 37.1C64.3792 37.3875 63.0186 37.9542 61.8063 38.7675C60.594 39.5809 59.5538 40.6251 58.745 41.8405L54.7786 39.2011Z" fill="#BFD0FF"/>
<path d="M83.4309 44.2445C84.4266 48.3371 83.7558 52.6575 81.5661 56.2555C79.3763 59.8534 75.847 62.4341 71.7544 63.4298C67.6619 64.4256 63.3415 63.7548 59.7435 61.565C56.1456 59.3753 53.5649 55.8459 52.5691 51.7534L57.1984 50.6271C57.8954 53.4919 59.7019 55.9624 62.2205 57.4952C64.739 59.028 67.7633 59.4976 70.6281 58.8006C73.4929 58.1036 75.9634 56.2971 77.4962 53.7785C79.0291 51.26 79.4986 48.2356 78.8016 45.3709L83.4309 44.2445Z" fill="#366DFD"/>
<path d="M56.5909 59.0461C54.8932 57.2928 53.6224 55.1717 52.8773 52.8477C52.1321 50.5236 51.9326 48.0591 52.2943 45.6455C52.656 43.2318 53.5691 40.934 54.9628 38.9305C56.3564 36.9269 58.1931 35.2715 60.3301 34.0928L62.6311 38.2647C61.1351 39.0898 59.8495 40.2486 58.8739 41.651C57.8984 43.0535 57.2592 44.662 57.006 46.3515C56.7528 48.0411 56.8925 49.7662 57.4141 51.3931C57.9357 53.0199 58.8252 54.5046 60.0136 55.732L56.5909 59.0461Z" fill="#5785FD"/>
<path d="M76.4451 34.5494C74.679 33.4404 72.7116 32.69 70.6555 32.3413C68.5993 31.9925 66.4946 32.0522 64.4615 32.5169C62.4284 32.9815 60.5067 33.8421 58.8062 35.0494C57.1056 36.2568 55.6596 37.7872 54.5505 39.5534C53.4415 41.3196 52.6911 43.2869 52.3424 45.3431C51.9937 47.3992 52.0533 49.504 52.518 51.5371C52.9826 53.5702 53.8432 55.4918 55.0505 57.1924C56.2579 58.8929 57.7883 60.339 59.5545 61.448L62.0881 57.4132C60.8518 56.6369 59.7805 55.6246 58.9353 54.4343C58.0902 53.2439 57.4878 51.8987 57.1625 50.4756C56.8373 49.0524 56.7955 47.5791 57.0396 46.1398C57.2837 44.7005 57.809 43.3233 58.5853 42.087C59.3616 40.8507 60.3739 39.7793 61.5643 38.9342C62.7546 38.0891 64.0998 37.4867 65.523 37.1614C66.9461 36.8362 68.4195 36.7944 69.8588 37.0385C71.2981 37.2826 72.6752 37.8079 73.9115 38.5842L76.4451 34.5494Z" fill="#224AC9"/>
<defs>
<linearGradient id="paint0_linear_2407_8434" x1="35.2411" y1="43.8965" x2="78.5594" y2="-40.9161" gradientUnits="userSpaceOnUse">
<stop stop-color="#356CFC"/>
<stop offset="0.698575" stop-color="#C7D6FF"/>
</linearGradient>
</defs>
</svg>
