<svg width="130" height="110" viewBox="0 0 130 110" fill="none" xmlns="http://www.w3.org/2000/svg">
<rect width="130" height="110" fill="white"/>
<path d="M94.1519 42.2673C93.1057 40.4821 91.719 38.9228 90.0716 37.6792C88.4243 36.4355 86.5488 35.5321 84.5532 35.0208C82.5575 34.5096 80.481 34.4006 78.4433 34.7003C76.4057 34.9999 74.4473 35.7022 72.6804 36.7668C72.2315 37.0418 71.8017 37.3365 71.3918 37.6311L73.5391 48.0035L65.0284 49.7912C64.9275 52.798 65.6865 55.7707 67.2148 58.3563C68.261 60.1415 69.6477 61.7008 71.2951 62.9444C72.9424 64.1881 74.8179 65.0915 76.8135 65.6028C78.8092 66.114 80.8852 66.2229 82.9229 65.9233C84.9606 65.6237 86.9194 64.9214 88.6863 63.8568C90.4575 62.804 92.0043 61.4094 93.2383 59.753C94.4723 58.0967 95.3691 56.2113 95.877 54.2052C96.3848 52.199 96.4938 50.1117 96.1977 48.063C95.9016 46.0143 95.2066 44.0447 94.1519 42.2673Z" fill="#DFEEFF"/>
<path d="M39.5933 66.1523H28.4671C26.9902 66.1523 25.793 67.3573 25.793 68.8437V96.307C25.793 97.7934 26.9902 98.9983 28.4671 98.9983H39.5933C41.0702 98.9983 42.2674 97.7934 42.2674 96.307V68.8437C42.2674 67.3573 41.0702 66.1523 39.5933 66.1523Z" fill="#70CCF7"/>
<path d="M87.1641 52.0111L80.7031 50.3413L83.3383 39.9492" stroke="#1588E7" stroke-linecap="round" stroke-linejoin="round"/>
<path d="M35.0859 75.1111L42.2691 73.4609V89.1374L35.0859 90.7876V75.1111Z" fill="#1588E7"/>
<path d="M71.4103 37.707C69.5037 39.1164 67.9406 40.9434 66.8382 43.0499C65.7359 45.1565 65.1231 47.4875 65.0469 49.8671L73.5576 48.0795L71.4103 37.707Z" fill="#DFEEFF"/>
<path d="M100.063 74.6602L87.3754 80.9072L83.9595 79.7482C83.6362 79.542 83.2886 79.3771 82.9249 79.257L76.6788 77.2926C84.1157 75.5245 80.8362 71.0063 80.8362 71.0063L56.7685 68.5703L42.2656 73.4618V89.1776L52.4548 88.274C67.7776 92.9101 71.2328 93.362 74.6487 93.7941C78.416 94.246 81.6559 93.7941 103.635 82.8913C108.612 80.3964 105.314 72.0671 100.063 74.6602Z" fill="#DFEEFF"/>
<path d="M106.095 28.5156C106.095 28.5156 104.67 34.409 102.191 34.5662C104.67 34.5662 106.095 40.6168 106.095 40.6168C106.095 40.6168 107.54 34.7234 109.999 34.5662C107.54 34.5662 106.095 28.5156 106.095 28.5156Z" fill="#1588E7"/>
<path d="M98 20C98 20 96.905 23.8961 95 24C96.905 24 98 28 98 28C98 28 99.11 24.1039 101 24C99.11 24 98 20 98 20Z" fill="#1588E7"/>
<path d="M41.7969 29.8882C41.5158 28.559 40.8771 27.3317 39.9496 26.3388C39.0222 25.346 37.8413 24.6252 36.5341 24.2543C36.2601 24.1803 35.9805 24.1286 35.6982 24.0995C33.8879 23.8012 32.0311 24.1789 30.4812 25.1606C28.9313 26.1424 27.7968 27.6598 27.2932 29.4239C27.0195 30.3731 26.9363 31.367 27.0483 32.3485C27.1603 33.33 27.4653 34.2796 27.9458 35.1428C28.4264 36.0059 29.0729 36.7655 29.8482 37.3778C30.6235 37.9901 31.5123 38.443 32.4633 38.7105C33.4126 38.982 34.4059 39.0637 35.3868 38.9507C36.3677 38.8378 37.3168 38.5324 38.1795 38.0522C39.0422 37.572 39.8017 36.9264 40.4145 36.1523C41.0273 35.3782 41.4814 34.4908 41.7508 33.541C42.0668 32.3458 42.0824 31.091 41.7969 29.8882Z" fill="#70CCF7"/>
<path d="M48.7969 18.8882C48.5158 17.559 47.8771 16.3317 46.9496 15.3388C46.0222 14.346 44.8413 13.6252 43.5341 13.2543C43.2601 13.1803 42.9805 13.1286 42.6982 13.0995C40.8879 12.8012 39.0311 13.1789 37.4812 14.1606C35.9313 15.1424 34.7968 16.6598 34.2932 18.4239C34.0195 19.3731 33.9363 20.367 34.0483 21.3485C34.1603 22.33 34.4653 23.2796 34.9458 24.1428C35.4264 25.0059 36.0729 25.7655 36.8482 26.3778C37.6235 26.9901 38.5123 27.443 39.4633 27.7105C40.4126 27.982 41.4059 28.0637 42.3868 27.9507C43.3677 27.8378 44.3168 27.5324 45.1795 27.0522C46.0422 26.572 46.8017 25.9264 47.4145 25.1523C48.0273 24.3782 48.4814 23.4908 48.7508 22.541C49.0668 21.3458 49.0824 20.091 48.7969 18.8882Z" fill="#3FC2FF"/>
<g clip-path="url(#clip0_3420_80452)">
<rect x="42" y="38" width="15" height="15" rx="7.5" fill="#3FC2FF"/>
<path fill-rule="evenodd" clip-rule="evenodd" d="M52.3073 45.3061C52.0273 45.0958 51.6283 45.0117 51.6283 45.0117C51.6283 45.0117 51.9659 44.8165 52.1039 44.6215C52.242 44.4265 52.311 44.1243 52.3226 43.9675C52.334 43.8107 52.3609 43.153 51.8469 42.7744C51.4493 42.4815 50.9936 42.3652 50.3817 42.3274V41H49.5609V42.3117H48.9356V41H48.1149V42.3117H46.5V43.1616H46.9746C47.1041 43.1616 47.3342 43.1759 47.432 43.285C47.5298 43.394 47.5471 43.4514 47.5471 43.6635L47.5471 47.05C47.5471 47.1303 47.5318 47.2297 47.4627 47.2948C47.3937 47.3598 47.3247 47.375 47.1597 47.375H46.6688L46.5 48.358H48.1149V49.6659H48.9357V48.358H49.5609V49.6659H50.3818V48.3364C50.5939 48.324 50.7918 48.308 50.9072 48.2929L50.9258 48.2905C51.1684 48.2591 51.6832 48.1924 52.1654 47.857C52.6602 47.5127 52.7713 46.9735 52.7829 46.4305C52.7945 45.8874 52.5871 45.5164 52.3073 45.3061L52.3073 45.3061ZM48.9563 43.2258C48.9563 43.2258 49.2159 43.2029 49.4718 43.2067C49.7277 43.2105 49.9529 43.2182 50.2891 43.3215C50.6251 43.4249 50.8235 43.6776 50.8313 43.9762C50.8389 44.2748 50.7089 44.4737 50.4799 44.6001C50.2508 44.7264 49.934 44.7953 49.636 44.8067C49.3382 44.8182 48.9563 44.8067 48.9563 44.8067V43.2258H48.9563ZM49.8617 47.3836C50.2246 47.3568 50.5991 47.2645 50.7863 47.1606C50.9733 47.0568 51.1989 46.8952 51.1989 46.4915C51.1989 46.0876 50.9314 45.9185 50.7786 45.8416C50.6258 45.7646 50.2858 45.6608 49.8809 45.6338C49.4759 45.607 48.9563 45.6338 48.9563 45.6338V47.399C48.9563 47.399 49.4988 47.4106 49.8617 47.3836Z" fill="white"/>
</g>
<defs>
<clipPath id="clip0_3420_80452">
<rect width="15" height="15" fill="white" transform="translate(42 38)"/>
</clipPath>
</defs>
</svg>
