<svg width="130" height="110" viewBox="0 0 130 110" fill="none" xmlns="http://www.w3.org/2000/svg">
<rect width="130" height="110" fill="white"/>
<g clip-path="url(#clip0_3493_80733)">
<path d="M44.2351 77.9062L62.7367 90.964C62.9175 91.1181 63.0627 91.3096 63.1623 91.5253C63.2618 91.7409 63.3134 91.9757 63.3134 92.2132C63.3134 92.4508 63.2618 92.6855 63.1623 92.9012C63.0627 93.1169 62.9175 93.3084 62.7367 93.4625L60.6576 95.5506C59.9646 96.2345 59.071 96.0613 58.1592 95.5506L39.457 82.6753" fill="#1588E7"/>
<path d="M36.6246 70.1747L31.8738 74.9528C31.76 75.0685 31.6347 75.1724 31.5 75.2629L26.9407 78.3176C26.6345 78.5242 26.3778 78.7959 26.1888 79.1133C25.9999 79.4307 25.8834 79.7859 25.8477 80.1535C25.812 80.5212 25.8579 80.8922 25.9822 81.24C26.1065 81.5878 26.3062 81.9039 26.5668 82.1656L32.9498 88.5486C33.2117 88.8082 33.5274 89.0071 33.8746 89.1312C34.2218 89.2553 34.5921 89.3016 34.9592 89.2668C35.3263 89.232 35.6812 89.117 35.999 88.9298C36.3167 88.7427 36.5894 88.488 36.7978 88.1838L40.0076 83.4695C40.0978 83.34 40.1984 83.218 40.3085 83.1048L44.9224 78.5455L85.5273 57.3631C85.8757 57.1807 86.1764 56.9189 86.4049 56.5989C86.6335 56.2788 86.7836 55.9095 86.8431 55.5207C86.9025 55.132 86.8697 54.7347 86.7473 54.3609C86.6248 53.9872 86.4162 53.6475 86.1383 53.3692L61.7735 28.9954C61.4953 28.7174 61.1556 28.5088 60.7818 28.3863C60.4081 28.2639 60.0108 28.2311 59.622 28.2906C59.2332 28.35 58.8639 28.5001 58.5438 28.7287C58.2238 28.9572 57.962 29.2579 57.7796 29.6063L36.6246 70.1747Z" fill="#E9EFFC"/>
<path d="M40.1872 83.2778L31.8711 74.9526L36.6219 70.1836L44.9653 78.5179L40.1872 83.2778Z" fill="#A1CFF5"/>
<path d="M108.888 17.659C108.022 16.0923 106.839 14.7229 105.414 13.6377C102.166 11.2129 98.2063 9.9305 94.1529 9.99028C90.1026 9.93183 86.1465 11.2142 82.9007 13.6377C81.4737 14.7226 80.2876 16.0919 79.4174 17.659C78.588 19.1933 78.1584 20.9118 78.1681 22.6559C78.2166 24.4494 78.6819 26.207 79.527 27.7897C80.3721 29.3723 81.574 30.7366 83.0374 31.7745C82.2089 34.0196 80.6349 35.9122 78.5785 37.1362C78.4299 37.2312 78.3143 37.3698 78.2474 37.533C78.1805 37.6962 78.1655 37.876 78.2046 38.048C78.2514 38.2271 78.3566 38.3854 78.5037 38.4977C78.6507 38.6101 78.8311 38.67 79.0162 38.6681C81.2573 38.5258 83.4382 37.884 85.3991 36.7897C86.6787 36.1652 87.9182 35.4617 89.1104 34.6833C90.7719 35.1153 92.4818 35.3329 94.1985 35.3307C98.2525 35.3946 102.213 34.1118 105.46 31.6833C106.882 30.5992 108.064 29.2333 108.934 27.6711C109.786 26.14 110.235 24.4173 110.238 22.6651C110.224 20.9084 109.759 19.1847 108.888 17.659ZM92.7578 33.5708C93.2137 33.5708 93.6697 33.6255 94.1347 33.6255C93.6697 33.6255 93.232 33.6073 92.7578 33.5708Z" fill="#E9EFFC"/>
<path fill-rule="evenodd" clip-rule="evenodd" d="M98.5483 22.4793C98.1092 22.1495 97.4835 22.0176 97.4835 22.0176C97.4835 22.0176 98.013 21.7115 98.2293 21.4058C98.4459 21.0999 98.5541 20.6261 98.5722 20.3802C98.5902 20.1342 98.6324 19.1028 97.8263 18.5091C97.2027 18.0498 96.4882 17.8674 95.5286 17.8081V15.7266H94.2414V17.7835H93.2609V15.7266H91.9738V17.7835H89.4414V19.1163H90.1857C90.3887 19.1163 90.7496 19.1388 90.9029 19.3099C91.0564 19.4808 91.0834 19.5708 91.0834 19.9035L91.0835 25.2141C91.0835 25.34 91.0594 25.4959 90.9511 25.5979C90.8429 25.6999 90.7347 25.7237 90.4759 25.7237H89.7061L89.4414 27.2652H91.9738V29.3163H93.261V27.2652H94.2414V29.3163H95.5287V27.2314C95.8615 27.212 96.1717 27.1869 96.3527 27.1632L96.3819 27.1594C96.7623 27.1101 97.5696 27.0055 98.3258 26.4796C99.1017 25.9397 99.276 25.0941 99.2941 24.2426C99.3124 23.391 98.9871 22.8091 98.5484 22.4793L98.5483 22.4793ZM93.2933 19.2171C93.2933 19.2171 93.7004 19.1811 94.1017 19.187C94.503 19.193 94.8562 19.205 95.3833 19.3671C95.9102 19.5293 96.2214 19.9255 96.2336 20.3937C96.2456 20.862 96.0417 21.174 95.6826 21.3721C95.3233 21.5702 94.8265 21.6783 94.3592 21.6961C93.8922 21.7142 93.2933 21.6961 93.2933 21.6961V19.2171H93.2933ZM94.7132 25.7372C95.2823 25.6951 95.8695 25.5504 96.163 25.3875C96.4564 25.2247 96.8102 24.9714 96.8102 24.3383C96.8102 23.7049 96.3906 23.4396 96.151 23.3191C95.9115 23.1983 95.3783 23.0356 94.7432 22.9932C94.1081 22.9511 93.2933 22.9932 93.2933 22.9932V25.7614C93.2933 25.7614 94.144 25.7795 94.7132 25.7372Z" fill="#1588E7"/>
</g>
<path d="M98.0953 77.5156C98.0953 77.5156 96.6704 83.409 94.1914 83.5662C96.6704 83.5662 98.0953 89.6168 98.0953 89.6168C98.0953 89.6168 99.5398 83.7234 101.999 83.5662C99.5398 83.5662 98.0953 77.5156 98.0953 77.5156Z" fill="#1588E7"/>
<path d="M29.9039 38C29.9039 38 28.479 43.8934 26 44.0506C28.479 44.0506 29.9039 50.1012 29.9039 50.1012C29.9039 50.1012 31.3483 44.2077 33.8078 44.0506C31.3483 44.0506 29.9039 38 29.9039 38Z" fill="#1588E7"/>
<path d="M90 69C90 69 88.905 72.8961 87 73C88.905 73 90 77 90 77C90 77 91.11 73.1039 93 73C91.11 73 90 69 90 69Z" fill="#1588E7"/>
<defs>
<clipPath id="clip0_3493_80733">
<rect width="90.1915" height="90" fill="white" transform="translate(20 10)"/>
</clipPath>
</defs>
</svg>
