<svg width="130" height="110" viewBox="0 0 130 110" fill="none" xmlns="http://www.w3.org/2000/svg">
<rect width="130" height="110" fill="white"/>
<g clip-path="url(#clip0_3420_80436)">
<path d="M91.9569 41.5372L36.4694 54.4802C35.3126 54.75 34.5843 55.8659 34.8424 56.9725L43.4281 93.7802C43.6863 94.8868 44.8332 95.5652 45.9899 95.2954L101.477 82.3524C102.634 82.0826 103.363 80.9667 103.105 79.8601L94.5189 43.0525C94.2607 41.9458 93.1137 41.2674 91.9569 41.5372Z" fill="#70CCF7"/>
<path d="M89.7113 39.4629L87.1707 40.0546L73.09 43.3398L70.5287 43.9384L40.509 50.9405C36.8061 51.8035 34.2795 54.5459 34.8711 57.0655C35.4627 59.5852 38.9358 60.9285 42.6387 60.0654L95.6066 47.7109L93.4837 38.5859L89.7113 39.4629Z" fill="#DFEEFF"/>
<path d="M100.883 60.6457L82.2495 64.9922C82.0923 65.0289 81.9946 65.1861 82.0313 65.3433L83.527 71.7556C83.5637 71.9128 83.7208 72.0106 83.878 71.9739L102.512 67.6274C102.669 67.5907 102.767 67.4335 102.73 67.2763L101.234 60.864C101.198 60.7068 101.04 60.6091 100.883 60.6457Z" fill="#005EC3"/>
<path opacity="0.3" d="M101.158 60.584L98.7383 61.1484L100.367 68.1301L102.787 67.5656L101.158 60.584Z" fill="#3FC2FF"/>
<path d="M101.743 28.0039C101.743 28.0039 100.574 32.8761 98.5625 32.8761C100.574 32.9318 101.743 37.7483 101.743 37.7483C101.743 37.7483 102.913 32.8761 104.924 32.8761C102.913 32.8483 101.743 28.0039 101.743 28.0039Z" fill="#1588E7"/>
<path d="M26.6065 44.5508C26.6065 44.5508 25.4373 49.423 23.4258 49.4578C25.4373 49.5135 26.6065 54.33 26.6065 54.33C26.6065 54.33 27.7759 49.4578 29.7874 49.4578C27.7759 49.3951 26.6065 44.5508 26.6065 44.5508Z" fill="#1588E7"/>
<path d="M39.3704 80.9024C34.5781 80.9024 29.982 82.809 26.5933 86.2028C23.2046 89.5966 21.3008 94.1996 21.3008 98.9991H57.4943C57.4943 96.618 57.025 94.2604 56.1135 92.0613C55.202 89.8621 53.8663 87.8647 52.1826 86.1836C50.4989 84.5024 48.5006 83.1706 46.302 82.2643C44.1035 81.3581 41.7479 80.8953 39.3704 80.9024Z" fill="#DFEEFF"/>
<path d="M57.8657 87.8672C54.9984 87.8672 52.2485 89.0405 50.2211 91.129C48.1936 93.2175 47.0547 96.0501 47.0547 99.0037H68.6316C68.6316 96.0581 67.4988 93.2325 65.481 91.1453C63.4633 89.0582 60.7251 87.8795 57.8657 87.8672Z" fill="#DFEEFF"/>
<path d="M55.2029 33.3195C54.916 31.9626 54.264 30.7097 53.3172 29.6962C52.3704 28.6826 51.1649 27.9468 49.8305 27.5682C49.5508 27.4927 49.2654 27.4399 48.9772 27.4102C47.1291 27.1056 45.2336 27.4912 43.6514 28.4934C42.0693 29.4957 40.911 31.0447 40.397 32.8455C40.1176 33.8145 40.0326 34.8292 40.147 35.8311C40.2613 36.833 40.5727 37.8025 41.0632 38.6836C41.5537 39.5647 42.2138 40.3402 43.0052 40.9652C43.7967 41.5903 44.704 42.0526 45.6749 42.3257C46.6439 42.6029 47.658 42.6862 48.6593 42.5709C49.6606 42.4556 50.6295 42.1439 51.5102 41.6537C52.3909 41.1635 53.1662 40.5044 53.7917 39.7142C54.4173 38.9239 54.8809 38.018 55.1559 37.0484C55.4785 35.8283 55.4944 34.5474 55.2029 33.3195Z" fill="#70CCF7"/>
<path d="M62.16 22.1828C61.8731 20.8259 61.2211 19.573 60.2743 18.5594C59.3274 17.5459 58.1219 16.8101 56.7875 16.4315C56.5078 16.356 56.2224 16.3031 55.9342 16.2735C54.0862 15.9689 52.1906 16.3545 50.6085 17.3567C49.0263 18.3589 47.8681 19.9079 47.354 21.7088C47.0746 22.6778 46.9897 23.6924 47.104 24.6944C47.2184 25.6963 47.5297 26.6658 48.0202 27.5469C48.5108 28.428 49.1708 29.2034 49.9623 29.8285C50.7537 30.4536 51.661 30.9159 52.6319 31.189C53.601 31.4662 54.615 31.5495 55.6163 31.4342C56.6176 31.3189 57.5866 31.0072 58.4672 30.517C59.3479 30.0268 60.1232 29.3677 60.7488 28.5775C61.3743 27.7872 61.838 26.8813 62.1129 25.9117C62.4355 24.6916 62.4515 23.4107 62.16 22.1828Z" fill="#3FC2FF"/>
<g clip-path="url(#clip1_3420_80436)">
<rect x="63.7539" y="34.2695" width="16.0087" height="16.0087" rx="8.00434" fill="#3FC2FF"/>
<path fill-rule="evenodd" clip-rule="evenodd" d="M74.7564 42.0644C74.4575 41.8399 74.0318 41.7502 74.0318 41.7502C74.0318 41.7502 74.3921 41.5419 74.5393 41.3338C74.6867 41.1257 74.7604 40.8032 74.7727 40.6358C74.7849 40.4684 74.8136 39.7665 74.265 39.3625C73.8407 39.0499 73.3544 38.9258 72.7013 38.8854V37.4688H71.8253V38.8686H71.158V37.4688H70.282V38.8686H68.5586V39.7757H69.0652C69.2033 39.7757 69.4489 39.791 69.5533 39.9075C69.6577 40.0237 69.6761 40.085 69.6761 40.3114L69.6761 43.9256C69.6761 44.0113 69.6598 44.1174 69.586 44.1868C69.5124 44.2562 69.4387 44.2724 69.2626 44.2724H68.7387L68.5586 45.3215H70.282V46.7174H71.158V45.3215H71.8253V46.7174H72.7014V45.2985C72.9278 45.2853 73.139 45.2682 73.2622 45.2521L73.282 45.2495C73.5409 45.216 74.0904 45.1448 74.605 44.7868C75.133 44.4194 75.2516 43.8439 75.264 43.2644C75.2764 42.6849 75.0551 42.2889 74.7564 42.0644L74.7564 42.0644ZM71.1796 39.8431C71.1796 39.8431 71.4567 39.8186 71.7298 39.8226C72.0029 39.8267 72.2433 39.8349 72.602 39.9452C72.9606 40.0556 73.1724 40.3252 73.1807 40.6439C73.1888 40.9626 73.0501 41.1749 72.8057 41.3097C72.5612 41.4445 72.2231 41.5181 71.905 41.5302C71.5872 41.5425 71.1796 41.5302 71.1796 41.5302V39.8431H71.1796ZM72.146 44.2821C72.5332 44.2534 72.9329 44.1549 73.1327 44.044C73.3323 43.9333 73.5731 43.7608 73.5731 43.33C73.5731 42.899 73.2875 42.7184 73.1245 42.6364C72.9614 42.5542 72.5986 42.4435 72.1664 42.4146C71.7341 42.3859 71.1796 42.4146 71.1796 42.4146V44.2985C71.1796 44.2985 71.7586 44.3108 72.146 44.2821Z" fill="white"/>
</g>
</g>
<defs>
<clipPath id="clip0_3420_80436">
<rect width="88.3958" height="87.0037" fill="white" transform="translate(21.3008 12)"/>
</clipPath>
<clipPath id="clip1_3420_80436">
<rect width="16.0087" height="16.0087" fill="white" transform="translate(63.7539 34.2695)"/>
</clipPath>
</defs>
</svg>
