<svg width="515" height="274" viewBox="0 0 515 274" fill="none" xmlns="http://www.w3.org/2000/svg">
<mask id="mask0_4014_97566" style="mask-type:alpha" maskUnits="userSpaceOnUse" x="187" y="0" width="328" height="263">
<path d="M187 263L193.667 0H515V263H187Z" fill="#D9D9D9"/>
</mask>
<g mask="url(#mask0_4014_97566)">
<circle cx="87" cy="-243" r="420" stroke="#DBE9FF" stroke-opacity="0.2" stroke-width="140"/>
<circle cx="356.5" cy="28.5" r="1.5" fill="white"/>
<circle cx="348.5" cy="23.5" r="2.5" fill="white"/>
<ellipse cx="37.5913" cy="10.8479" rx="37.5913" ry="10.8479" transform="matrix(0.893248 -0.449563 0.332224 0.943201 302.262 95.2734)" stroke="#A1CFF5" stroke-width="2.08619"/>
<ellipse cx="37.5832" cy="10.848" rx="37.5832" ry="10.848" transform="matrix(0.99968 0.0252875 -0.150736 0.988574 303.508 76.9297)" stroke="#1588E7" stroke-width="2.08598"/>
<ellipse cx="20.9656" cy="20.9988" rx="20.9656" ry="20.9988" transform="matrix(0.95894 -0.28361 0.282963 0.959131 312.543 72.8906)" fill="#E9EFFC"/>
<path d="M373.02 71.7085C375.01 77.3593 361.59 89.5064 343.046 98.8399C324.501 108.173 307.854 111.159 305.863 105.508" stroke="#A1CFF5" stroke-width="2.08619"/>
<path d="M377.013 89.557C376.11 95.4798 358.557 99.8556 337.807 99.3307C317.057 98.8058 300.968 93.579 301.871 87.6562" stroke="#1588E7" stroke-width="2.08598"/>
</g>
<path d="M176.087 272.562L116.487 254.722C109.417 252.602 104.377 242.302 107.937 235.662L183.237 102.842C186.807 96.2016 195.427 92.5417 202.507 94.6517L264.247 109.382C271.317 111.502 273.867 122.262 270.297 128.902L197.197 264.902C193.637 271.562 183.157 274.672 176.087 272.562Z" fill="#1588E7"/>
<path d="M262.089 108.997L200.639 90.597C193.749 88.537 185.319 92.127 181.839 98.597L108.739 234.597C107.916 236.007 107.422 237.584 107.292 239.211C107.162 240.839 107.4 242.474 107.989 243.997C108.614 245.431 109.557 246.705 110.745 247.723C111.933 248.742 113.336 249.478 114.849 249.877L176.299 268.267C183.189 270.337 191.619 266.747 195.099 260.267L268.199 124.267C269.023 122.86 269.519 121.284 269.649 119.658C269.779 118.032 269.539 116.397 268.949 114.877C268.323 113.443 267.381 112.169 266.193 111.151C265.005 110.132 263.602 109.396 262.089 108.997Z" fill="white"/>
<path d="M208.468 185.078C202.273 197.797 188.279 203.609 177.268 198.246C166.257 192.883 162.205 178.281 168.4 165.562C174.595 152.844 188.59 147.032 199.601 152.395C210.611 157.758 214.663 172.36 208.468 185.078Z" stroke="#E9EFFC"/>
<path d="M214.975 188.25C206.783 205.07 188.255 212.787 173.651 205.673C159.046 198.56 153.7 179.215 161.893 162.395C170.085 145.575 188.613 137.858 203.217 144.971C217.822 152.085 223.168 171.43 214.975 188.25Z" stroke="#E9EFFC"/>
<path d="M202.139 182.002C197.888 190.731 188.302 194.689 180.787 191.029C173.272 187.368 170.479 177.381 174.731 168.652C178.983 159.922 188.569 155.964 196.083 159.625C203.598 163.285 206.391 173.272 202.139 182.002Z" stroke="#E9EFFC"/>
<path d="M198.542 180.244C195.395 186.707 188.315 189.611 182.786 186.918C177.258 184.226 175.18 176.861 178.328 170.398C181.476 163.936 188.556 161.032 194.084 163.724C199.612 166.417 201.69 173.782 198.542 180.244Z" fill="#E9EFFC" stroke="#E9EFFC"/>
<path d="M237.339 114.279L213.489 107.139C213.124 107.045 212.786 106.867 212.504 106.618C212.221 106.37 212 106.058 211.86 105.708C211.72 105.359 211.664 104.981 211.697 104.606C211.729 104.231 211.85 103.869 212.049 103.549C212.473 102.806 213.129 102.223 213.917 101.889C214.704 101.555 215.579 101.488 216.409 101.699L240.258 108.829C240.623 108.923 240.961 109.102 241.243 109.35C241.526 109.599 241.747 109.91 241.887 110.26C242.027 110.609 242.083 110.987 242.05 111.362C242.018 111.737 241.897 112.099 241.698 112.419C241.276 113.164 240.62 113.749 239.833 114.085C239.045 114.421 238.169 114.489 237.339 114.279Z" fill="#1588E7"/>
<path d="M269.12 114.54C268.464 113.02 267.471 111.67 266.217 110.591C264.963 109.512 263.479 108.732 261.88 108.31L200.43 89.9096C193.28 87.7696 184.53 91.4896 180.93 98.1996L107.83 234.2C106.961 235.686 106.44 237.349 106.305 239.065C106.17 240.781 106.424 242.506 107.05 244.11C107.711 245.626 108.705 246.973 109.958 248.051C111.212 249.13 112.692 249.912 114.29 250.34L175.74 268.74C182.89 270.88 191.64 267.16 195.24 260.45L268.34 124.45C269.209 122.964 269.732 121.3 269.867 119.584C270.002 117.868 269.746 116.143 269.12 114.54ZM264.91 123.33L191.81 259.33C190.409 261.784 188.242 263.712 185.641 264.817C183.04 265.923 180.149 266.145 177.41 265.45L115.96 247.06C114.797 246.749 113.719 246.181 112.807 245.397C111.895 244.612 111.171 243.632 110.69 242.53C110.234 241.361 110.049 240.105 110.148 238.854C110.246 237.604 110.627 236.392 111.26 235.31L184.36 99.3096C185.759 96.8538 187.926 94.9252 190.527 93.8196C193.128 92.7141 196.02 92.4927 198.76 93.1896L260.21 111.58C261.372 111.89 262.45 112.458 263.362 113.242C264.275 114.027 264.998 115.007 265.48 116.11C265.935 117.278 266.12 118.535 266.021 119.785C265.923 121.035 265.543 122.247 264.91 123.33Z" fill="#A1CFF5"/>
<mask id="mask1_4014_97566" style="mask-type:alpha" maskUnits="userSpaceOnUse" x="0" y="0" width="253" height="244">
<rect width="253" height="244" fill="#D9D9D9"/>
</mask>
<g mask="url(#mask1_4014_97566)">
<path d="M105.96 67.86C105.96 67.86 118.42 62.86 127.21 66.21C136 69.56 139.01 75.72 139.01 75.72C143.524 76.104 147.879 77.5683 151.708 79.9893C155.537 82.4102 158.727 85.7169 161.01 89.63C169.36 103.3 168.39 119.86 161.16 127.28C161.16 127.28 173.27 150.78 174.86 157.37C176.7 164.96 173.86 171.45 163.95 174.15C154.63 176.7 147.7 170.05 142.95 157.73C142.95 157.73 133.76 137.32 127.76 130.41C125.872 128.206 123.768 126.196 121.48 124.41C119.743 123.02 117.622 122.198 115.402 122.053C113.183 121.908 110.973 122.448 109.07 123.6C108.519 123.943 108.021 124.364 107.59 124.85C107.59 124.85 117.51 139.49 119.1 144.85C120.69 150.21 116.1 159.59 107.75 160.85C99.4 162.11 92.89 155.97 87.81 148.98C82.73 141.99 80.75 141.47 77.49 142.75C74.23 144.03 61.49 149.46 47.9 139.87C34.31 130.28 30.28 120.54 20.4 102.59L-25 18.4199L47.05 -40L105.96 67.86Z" fill="white"/>
<path d="M136.12 105.909C137.74 108.229 137.84 111.579 137.94 114.829C137.91 116.736 138.108 118.639 138.53 120.499C140.25 126.329 146.94 130.889 152.3 129.879C158.3 128.739 166.3 125.149 165.3 107.219C165.292 107.014 165.365 106.813 165.504 106.662C165.642 106.51 165.835 106.419 166.04 106.409C166.142 106.403 166.243 106.418 166.338 106.452C166.434 106.486 166.522 106.538 166.597 106.606C166.672 106.674 166.733 106.756 166.777 106.847C166.82 106.939 166.845 107.038 166.85 107.139C167.62 121.509 162.95 129.439 152.58 131.399C148.11 132.239 142.84 129.709 139.58 125.709C138.42 124.303 137.546 122.682 137.01 120.939C136.547 118.95 136.329 116.911 136.36 114.869C136.27 111.869 136.18 108.739 134.82 106.799C132.68 103.719 127.49 104.799 127.44 104.799C127.341 104.821 127.239 104.823 127.139 104.805C127.039 104.788 126.943 104.75 126.858 104.696C126.772 104.641 126.698 104.569 126.64 104.486C126.583 104.402 126.542 104.308 126.52 104.209C126.479 104.009 126.517 103.8 126.627 103.628C126.738 103.456 126.911 103.334 127.11 103.289C127.4 103.219 133.37 101.999 136.12 105.909Z" fill="#C1D8FD"/>
<path d="M115.912 89.1108C113.736 90.2472 111.879 91.9113 110.512 93.9508C110.395 94.1198 110.216 94.2357 110.013 94.2732C109.811 94.3106 109.602 94.2667 109.432 94.1508C109.37 94.1117 109.315 94.0607 109.272 94.0008C109.172 93.8686 109.117 93.7069 109.117 93.5407C109.117 93.3746 109.172 93.213 109.272 93.0808C110.746 90.8829 112.733 89.0775 115.062 87.8208C114.832 87.4708 114.602 87.1408 114.382 86.8208C114.329 86.7348 114.293 86.6391 114.277 86.5393C114.261 86.4395 114.264 86.3374 114.288 86.239C114.311 86.1405 114.353 86.0477 114.412 85.9657C114.471 85.8836 114.546 85.814 114.632 85.7608C114.807 85.656 115.015 85.6234 115.213 85.6701C115.411 85.7168 115.583 85.8391 115.692 86.0108C120.552 93.9008 125.372 96.2607 131.832 93.9207C133.265 93.3859 134.572 92.5634 135.675 91.504C136.777 90.4446 137.651 89.1708 138.242 87.7608C138.954 86.1587 139.34 84.4313 139.38 82.6788C139.419 80.9263 139.111 79.1833 138.472 77.5508C135.982 71.5508 128.702 68.2908 128.632 68.2608C128.45 68.1775 128.306 68.0271 128.232 67.8409C128.157 67.6547 128.158 67.447 128.232 67.2608C128.316 67.0784 128.466 66.9349 128.652 66.8604C128.838 66.786 129.046 66.7861 129.232 66.8608C129.552 67.0008 137.162 70.4008 139.882 76.9808C140.599 78.8058 140.946 80.7547 140.905 82.7148C140.864 84.6749 140.435 86.6075 139.642 88.4008C138.967 90.0035 137.971 91.4512 136.715 92.655C135.46 93.8588 133.972 94.7932 132.342 95.4008C126.342 97.5608 121.342 95.9708 116.852 90.4008C116.522 89.9508 116.222 89.5308 115.912 89.1108Z" fill="#C1D8FD"/>
<path d="M72.7299 86.2303C84.1299 79.6903 93.3099 80.4003 100.01 88.3503C103.55 92.5803 105.24 97.7703 104.54 102.35C104.238 104.175 103.539 105.911 102.492 107.435C101.445 108.959 100.075 110.234 98.4799 111.17C94.8399 113.47 91.3299 114.17 88.0299 113.44C88.4499 116.15 88.4799 123.33 79.1499 129.71C78.9926 129.808 78.8055 129.847 78.6223 129.819C78.4391 129.792 78.2716 129.7 78.1499 129.56V129.5C78.092 129.417 78.0514 129.322 78.0306 129.223C78.0097 129.123 78.0091 129.021 78.0287 128.921C78.0483 128.821 78.0877 128.726 78.1446 128.642C78.2015 128.558 78.2747 128.486 78.3599 128.43C88.5099 121.49 86.6599 113.75 86.4199 112.9C82.8399 111.43 79.6599 108.04 77.1499 102.99C77.0716 102.81 77.0642 102.607 77.1291 102.422C77.194 102.236 77.3264 102.082 77.4999 101.99C77.6797 101.91 77.8837 101.901 78.0697 101.966C78.2557 102.031 78.4097 102.165 78.4999 102.34C81.0999 107.57 84.3999 110.87 88.0299 111.89C91.0299 112.73 94.2799 112.06 97.7099 109.89C99.1225 109.078 100.336 107.961 101.261 106.62C102.187 105.28 102.802 103.749 103.06 102.14C103.69 98.1403 102.06 93.2402 98.8699 89.4102C92.6399 82.0202 84.3599 81.4103 73.5499 87.6403C60.8799 94.9203 58.5499 105.73 58.5499 105.84C58.5066 106.042 58.386 106.219 58.2141 106.333C58.0422 106.447 57.8325 106.489 57.6299 106.45C57.4565 106.414 57.3011 106.318 57.1899 106.18C57.1181 106.092 57.0666 105.989 57.0389 105.878C57.0113 105.767 57.0082 105.652 57.0299 105.54C57.0499 105 59.4199 93.8703 72.7299 86.2303Z" fill="#C1D8FD"/>
<path d="M154.352 173.263C154.439 173.413 154.568 173.534 154.722 173.613C160.922 176.613 170.182 173.153 173.422 168.163C176.662 163.173 175.852 158.823 172.682 151.163C169.512 143.503 161.282 127.473 161.222 127.273C161.118 127.08 160.942 126.935 160.732 126.872C160.523 126.808 160.296 126.83 160.102 126.933C160.004 126.982 159.916 127.051 159.844 127.135C159.773 127.219 159.718 127.317 159.685 127.422C159.651 127.527 159.639 127.638 159.649 127.748C159.659 127.858 159.691 127.965 159.742 128.063C159.822 128.223 167.992 144.123 171.172 151.833C174.502 159.883 174.682 163.203 172.052 167.273C169.242 171.603 160.882 174.753 155.502 172.123C155.403 172.073 155.295 172.044 155.185 172.036C155.074 172.028 154.963 172.042 154.858 172.078C154.753 172.113 154.656 172.169 154.573 172.242C154.489 172.315 154.421 172.403 154.372 172.503C154.311 172.62 154.277 172.749 154.274 172.881C154.27 173.012 154.297 173.143 154.352 173.263Z" fill="#C1D8FD"/>
</g>
</svg>
