<svg width="374" height="244" viewBox="0 0 374 244" fill="none" xmlns="http://www.w3.org/2000/svg">
<mask id="mask0_4014_97527" style="mask-type:alpha" maskUnits="userSpaceOnUse" x="0" y="0" width="374" height="244">
<path d="M373.277 0L373.277 244L0.000793457 244L0.000793457 0L373.277 0Z" fill="#D9D9D9"/>
</mask>
<g mask="url(#mask0_4014_97527)">
<path d="M43.5 427.217C43.5 205.107 229.569 21.5348 463.5 21.5348C697.431 21.5348 883.5 205.107 883.5 427.217C883.5 649.326 697.431 832.898 463.5 832.898C229.569 832.898 43.5 649.326 43.5 427.217Z" stroke="#DBE9FF" stroke-opacity="0.2" stroke-width="140"/>
<ellipse cx="1.48441" cy="1.47206" rx="1.48441" ry="1.47206" transform="matrix(-0.808997 -0.587812 0.610587 -0.791949 66.9961 212.477)" fill="white"/>
<ellipse cx="2.47402" cy="2.45343" rx="2.47402" ry="2.45343" transform="matrix(-0.808997 -0.587812 0.610587 -0.791949 70.6094 222.375)" fill="white"/>
<path d="M305.337 19.4652C307.599 19.4652 309.775 17.5257 309.67 15.2521C309.565 12.9786 307.771 11.0391 305.337 11.0391C303.075 11.0391 300.899 12.9786 301.004 15.2521C301.109 17.5257 302.903 19.4652 305.337 19.4652Z" fill="white"/>
<path d="M155.712 152.002L152.496 153.234L159.292 171.032L162.509 169.8L155.712 152.002Z" fill="#E9EFFC"/>
<path d="M167 159.721L165.77 156.5L148 163.307L149.23 166.528L167 159.721Z" fill="#E9EFFC"/>
<path d="M162.953 153.516L159.809 152.109L152.049 169.507L155.193 170.914L162.953 153.516Z" fill="#E9EFFC"/>
<path d="M165.482 166.977L166.887 163.828L149.516 156.057L148.111 159.205L165.482 166.977Z" fill="#E9EFFC"/>
</g>
</svg>
