<svg width="210" height="190" viewBox="0 0 210 190" fill="none" xmlns="http://www.w3.org/2000/svg">
<mask id="mask0_4020_21592" style="mask-type:alpha" maskUnits="userSpaceOnUse" x="0" y="56" width="191" height="160">
<path d="M0.546875 215.728L4.4179 56.5H191.001V215.728H0.546875Z" fill="#D9D9D9"/>
</mask>
<g mask="url(#mask0_4020_21592)">
<circle cx="-51.3274" cy="-45.4368" r="216.777" stroke="#86B5FF" stroke-opacity="0.2" stroke-width="72.2591"/>
<circle cx="87.7742" cy="94.6961" r="0.774205" fill="white"/>
<circle cx="83.6458" cy="92.1107" r="1.29034" fill="white"/>
<ellipse cx="19.4023" cy="5.59899" rx="19.4023" ry="5.59899" transform="matrix(0.893248 -0.449563 0.332224 0.943201 59.7852 129.156)" stroke="#A1CFF5" stroke-width="1.07676"/>
<ellipse cx="19.3981" cy="5.59906" rx="19.3981" ry="5.59906" transform="matrix(0.99968 0.0252875 -0.150736 0.988574 60.4258 119.688)" stroke="#1588E7" stroke-width="1.07665"/>
<ellipse cx="10.8211" cy="10.8383" rx="10.8211" ry="10.8383" transform="matrix(0.95894 -0.28361 0.282963 0.959131 65.0938 117.609)" fill="#E9EFFC"/>
<path d="M96.3027 116.992C97.33 119.909 90.4034 126.179 80.8318 130.996C71.2601 135.813 62.6679 137.354 61.6406 134.438" stroke="#A1CFF5" stroke-width="1.07676"/>
<path d="M98.3658 126.208C97.8997 129.265 88.8398 131.523 78.1299 131.252C67.4201 130.981 59.1159 128.284 59.582 125.227" stroke="#1588E7" stroke-width="1.07665"/>
</g>
<ellipse cx="195.407" cy="10.6517" rx="1.34471" ry="1.34702" fill="white"/>
<path d="M157.658 117.657L126.897 108.45C123.248 107.355 120.646 102.039 122.484 98.612L161.349 30.0587C163.191 26.6316 167.64 24.7425 171.295 25.8316L203.161 33.4343C206.81 34.5285 208.126 40.0821 206.284 43.5093L168.554 113.704C166.717 117.141 161.308 118.746 157.658 117.657Z" fill="#1588E7"/>
<path d="M202.047 33.2423L170.33 23.7454C166.774 22.6821 162.423 24.535 160.627 27.8745L122.897 98.069C122.473 98.7969 122.218 99.6109 122.151 100.451C122.084 101.291 122.206 102.135 122.51 102.921C122.833 103.661 123.319 104.318 123.932 104.844C124.546 105.37 125.27 105.75 126.051 105.956L157.767 115.447C161.323 116.516 165.675 114.663 167.471 111.318L205.2 41.1237C205.626 40.3973 205.882 39.584 205.949 38.7448C206.016 37.9055 205.892 37.0619 205.587 36.2772C205.264 35.537 204.778 34.8794 204.165 34.3538C203.552 33.8282 202.828 33.4482 202.047 33.2423Z" fill="white"/>
<path d="M174.368 72.5083C171.171 79.073 163.948 82.0724 158.265 79.3044C152.582 76.5364 150.49 69 153.688 62.4354C156.885 55.8707 164.108 52.8713 169.791 55.6393C175.474 58.4073 177.566 65.9437 174.368 72.5083Z" stroke="#E9EFFC" stroke-width="0.516137"/>
<path d="M177.727 74.1442C173.498 82.8257 163.935 86.8086 156.398 83.1371C148.86 79.4656 146.1 69.4808 150.329 60.7994C154.557 52.1179 164.12 48.135 171.658 51.8065C179.196 55.478 181.955 65.4628 177.727 74.1442Z" stroke="#E9EFFC" stroke-width="0.516137"/>
<path d="M171.099 70.9179C168.905 75.4236 163.957 77.4663 160.079 75.5771C156.2 73.6879 154.758 68.5332 156.953 64.0275C159.147 59.5219 164.095 57.4792 167.974 59.3683C171.852 61.2575 173.294 66.4123 171.099 70.9179Z" stroke="#E9EFFC" stroke-width="0.516137"/>
<path d="M169.246 70.0141C167.622 73.3496 163.967 74.8486 161.114 73.4589C158.261 72.0691 157.188 68.2678 158.813 64.9323C160.438 61.5967 164.092 60.0977 166.945 61.4875C169.798 62.8772 170.871 66.6785 169.246 70.0141Z" fill="#E9EFFC" stroke="#E9EFFC" stroke-width="0.516137"/>
<path d="M189.271 35.9617L176.961 32.2765C176.773 32.228 176.598 32.1358 176.452 32.0076C176.306 31.8793 176.193 31.7184 176.12 31.538C176.048 31.3577 176.019 31.1628 176.036 30.9692C176.053 30.7756 176.115 30.5886 176.218 30.4235C176.437 30.0401 176.775 29.739 177.182 29.5666C177.588 29.3941 178.04 29.3597 178.468 29.4686L190.778 33.1487C190.966 33.1972 191.14 33.2893 191.286 33.4176C191.432 33.5459 191.546 33.7067 191.618 33.8871C191.691 34.0674 191.72 34.2624 191.703 34.456C191.686 34.6496 191.624 34.8365 191.521 35.0016C191.303 35.386 190.964 35.6881 190.558 35.8616C190.151 36.035 189.699 36.0702 189.271 35.9617Z" fill="#1588E7"/>
<path d="M205.674 36.1028C205.335 35.3187 204.823 34.6219 204.176 34.0648C203.528 33.5078 202.763 33.1051 201.937 32.8873L170.221 23.3903C166.53 22.2858 162.014 24.2058 160.156 27.6691L122.426 97.8637C121.978 98.6308 121.709 99.4893 121.639 100.375C121.57 101.261 121.701 102.151 122.024 102.979C122.365 103.761 122.878 104.456 123.525 105.013C124.172 105.57 124.936 105.974 125.761 106.194L157.477 115.691C161.168 116.796 165.684 114.876 167.542 111.412L205.271 41.2177C205.72 40.4509 205.99 39.5923 206.06 38.7065C206.129 37.8206 205.997 36.9304 205.674 36.1028ZM203.501 40.6396L165.771 110.834C165.049 112.101 163.93 113.096 162.588 113.667C161.245 114.237 159.753 114.352 158.339 113.993L126.622 104.501C126.022 104.341 125.466 104.048 124.995 103.643C124.524 103.238 124.151 102.732 123.902 102.163C123.667 101.56 123.572 100.912 123.623 100.266C123.674 99.6209 123.87 98.9954 124.197 98.4366L161.926 28.242C162.648 26.9745 163.767 25.9791 165.109 25.4084C166.452 24.8378 167.945 24.7236 169.359 25.0833L201.075 34.575C201.675 34.7351 202.231 35.0285 202.702 35.4333C203.173 35.8381 203.547 36.344 203.795 36.9131C204.03 37.5163 204.126 38.1648 204.075 38.8101C204.024 39.4554 203.828 40.0808 203.501 40.6396Z" fill="#A1CFF5"/>
<path d="M121.46 12.0064C121.46 12.0064 127.891 9.42574 132.428 11.1548C136.965 12.8839 138.519 16.0633 138.519 16.0633C140.849 16.2615 143.096 17.0172 145.073 18.2668C147.049 19.5164 148.696 21.223 149.874 23.2427C154.183 30.2983 153.683 38.8456 149.951 42.6753C149.951 42.6753 156.202 54.8045 157.022 58.2058C157.972 62.1233 156.506 65.4731 151.391 66.8666C146.581 68.1828 143.004 64.7504 140.552 58.3916C140.552 58.3916 135.809 47.8573 132.712 44.2907C131.738 43.1531 130.652 42.1157 129.471 41.1939C128.575 40.4767 127.48 40.0521 126.334 39.9773C125.188 39.9025 124.048 40.1813 123.066 40.7759C122.781 40.9531 122.524 41.1704 122.302 41.4211C122.302 41.4211 127.422 48.9773 128.242 51.7438C129.063 54.5103 126.694 59.3517 122.384 60.002C118.075 60.6523 114.715 57.4832 112.093 53.8754C109.471 50.2676 108.449 49.9993 106.766 50.6599C105.083 51.3206 98.5078 54.1232 91.4935 49.1734C84.4792 44.2237 82.3992 39.1965 77.2998 29.9319L53.8672 -13.5114L91.0548 -43.6641L121.46 12.0064Z" fill="white"/>
<path d="M137.026 31.645C137.862 32.8425 137.914 34.5715 137.965 36.249C137.949 37.2332 138.052 38.2157 138.27 39.1755C139.158 42.1846 142.611 44.5382 145.377 44.0169C148.474 43.4285 152.603 41.5755 152.087 32.3212C152.083 32.2153 152.12 32.1119 152.192 32.0336C152.263 31.9554 152.363 31.9085 152.469 31.9031C152.521 31.9003 152.573 31.9079 152.622 31.9253C152.672 31.9428 152.717 31.9698 152.756 32.0048C152.795 32.0398 152.826 32.0821 152.849 32.1293C152.871 32.1765 152.884 32.2277 152.887 32.2799C153.284 39.6968 150.874 43.7898 145.522 44.8014C143.214 45.235 140.494 43.9291 138.812 41.8646C138.213 41.1387 137.762 40.3022 137.485 39.4026C137.246 38.3758 137.133 37.3237 137.15 36.2697C137.103 34.7212 137.057 33.1057 136.355 32.1044C135.25 30.5147 132.572 31.0721 132.546 31.0721C132.495 31.0835 132.442 31.0847 132.39 31.0755C132.339 31.0664 132.289 31.0471 132.245 31.0188C132.201 30.9905 132.163 30.9537 132.133 30.9106C132.103 30.8675 132.082 30.8189 132.071 30.7676C132.049 30.6644 132.069 30.5568 132.126 30.468C132.183 30.3792 132.273 30.3162 132.376 30.2928C132.525 30.2566 135.607 29.6269 137.026 31.645Z" fill="#C1D8FD"/>
<path d="M126.597 22.9739C125.474 23.5605 124.515 24.4194 123.81 25.472C123.749 25.5593 123.657 25.6191 123.552 25.6384C123.448 25.6578 123.34 25.6351 123.252 25.5753C123.22 25.5551 123.192 25.5288 123.17 25.4979C123.118 25.4296 123.09 25.3462 123.09 25.2604C123.09 25.1746 123.118 25.0913 123.17 25.023C123.931 23.8886 124.956 22.9567 126.158 22.3081C126.04 22.1275 125.921 21.9571 125.807 21.792C125.78 21.7476 125.761 21.6982 125.753 21.6467C125.745 21.5952 125.747 21.5425 125.759 21.4917C125.77 21.4409 125.792 21.393 125.823 21.3506C125.853 21.3083 125.892 21.2723 125.936 21.2449C126.026 21.1908 126.134 21.174 126.236 21.1981C126.338 21.2222 126.427 21.2853 126.483 21.3739C128.992 25.4463 131.48 26.6643 134.814 25.4565C135.553 25.1805 136.228 24.756 136.797 24.2092C137.366 23.6624 137.817 23.0049 138.122 22.2772C138.489 21.4502 138.689 20.5587 138.709 19.6542C138.73 18.7496 138.571 17.85 138.241 17.0074C136.956 13.9106 133.198 12.228 133.162 12.2125C133.068 12.1695 132.994 12.0919 132.956 11.9958C132.917 11.8997 132.917 11.7924 132.956 11.6964C132.999 11.6022 133.076 11.5282 133.173 11.4897C133.269 11.4513 133.376 11.4514 133.472 11.4899C133.637 11.5622 137.565 13.317 138.969 16.7132C139.339 17.6552 139.518 18.661 139.497 19.6727C139.475 20.6844 139.254 21.6819 138.845 22.6075C138.496 23.4347 137.982 24.1819 137.334 24.8032C136.686 25.4245 135.918 25.9068 135.077 26.2205C131.98 27.3353 129.4 26.5147 127.082 23.6398C126.912 23.4075 126.757 23.1907 126.597 22.9739Z" fill="#C1D8FD"/>
<path d="M104.31 21.4873C110.194 18.1118 114.932 18.4782 118.39 22.5815C120.217 24.7648 121.09 27.4435 120.728 29.8074C120.573 30.7492 120.212 31.6451 119.671 32.4319C119.131 33.2186 118.424 33.8767 117.6 34.3597C115.722 35.5469 113.91 35.9082 112.207 35.5314C112.424 36.9301 112.439 40.636 107.624 43.9289C107.542 43.9794 107.446 43.9994 107.351 43.9852C107.257 43.971 107.17 43.9236 107.107 43.8515V43.8206C107.077 43.7774 107.057 43.7287 107.046 43.6774C107.035 43.626 107.035 43.573 107.045 43.5215C107.055 43.47 107.075 43.4211 107.105 43.3776C107.134 43.3341 107.172 43.2969 107.216 43.2683C112.455 39.6863 111.5 35.6914 111.376 35.2527C109.528 34.494 107.887 32.7443 106.591 30.1378C106.551 30.0448 106.547 29.94 106.581 29.8443C106.614 29.7486 106.682 29.6691 106.772 29.6216C106.865 29.58 106.97 29.5755 107.066 29.6091C107.162 29.6427 107.241 29.7118 107.288 29.8023C108.63 32.5017 110.333 34.2049 112.207 34.7314C113.755 35.165 115.433 34.8192 117.203 33.6991C117.932 33.2801 118.558 32.7035 119.036 32.0114C119.514 31.3194 119.831 30.5294 119.964 29.6991C120.29 27.6345 119.448 25.1054 117.802 23.1286C114.586 19.3144 110.313 18.9996 104.733 22.2151C98.1937 25.9726 96.9911 31.552 96.9911 31.6088C96.9687 31.7128 96.9065 31.804 96.8178 31.8629C96.7291 31.9217 96.6208 31.9435 96.5163 31.9236C96.4268 31.9047 96.3466 31.8554 96.2892 31.7842C96.2521 31.7385 96.2255 31.6853 96.2112 31.6282C96.197 31.5712 96.1954 31.5116 96.2066 31.4539C96.2169 31.1752 97.4402 25.4306 104.31 21.4873Z" fill="#C1D8FD"/>
<path d="M146.435 66.4079C146.48 66.4853 146.546 66.548 146.626 66.5886C149.826 68.137 154.606 66.3511 156.278 63.7756C157.95 61.2001 157.532 58.9549 155.896 55.0013C154.26 51.0477 150.012 42.774 149.981 42.6708C149.927 42.5711 149.837 42.4967 149.728 42.4638C149.62 42.4309 149.503 42.4422 149.403 42.4953C149.352 42.5209 149.307 42.5565 149.27 42.5999C149.233 42.6432 149.205 42.6936 149.188 42.7479C149.17 42.8022 149.164 42.8594 149.169 42.9162C149.174 42.973 149.191 43.0282 149.217 43.0785C149.259 43.1611 153.475 51.3677 155.117 55.3471C156.835 59.502 156.928 61.2156 155.571 63.3163C154.121 65.5512 149.806 67.177 147.029 65.8195C146.978 65.7939 146.922 65.7786 146.865 65.7746C146.808 65.7706 146.751 65.7779 146.696 65.7962C146.642 65.8144 146.592 65.8432 146.549 65.8808C146.506 65.9185 146.471 65.9644 146.446 66.0157C146.414 66.0759 146.396 66.1426 146.395 66.2106C146.393 66.2786 146.407 66.3461 146.435 66.4079Z" fill="#C1D8FD"/>
<path d="M203.215 69.9423L201.555 70.5781L205.063 79.7641L206.723 79.1282L203.215 69.9423Z" fill="#E9EFFC"/>
<path d="M209.041 73.9282L208.406 72.2656L199.235 75.7789L199.869 77.4415L209.041 73.9282Z" fill="#E9EFFC"/>
<path d="M206.951 70.726L205.328 70L201.323 78.9797L202.946 79.7057L206.951 70.726Z" fill="#E9EFFC"/>
<path d="M208.26 77.6721L208.984 76.0469L200.019 72.0357L199.294 73.6609L208.26 77.6721Z" fill="#E9EFFC"/>
</svg>
